<svg width="200" height="58" viewBox="0 0 200 58" fill="none" xmlns="http://www.w3.org/2000/svg">
<g filter="url(#filter0_d_17_133)">
<rect x="4" width="192" height="50" rx="25" fill="#0077B6"/>
</g>
<path d="M52.22 23.98H57.88V31.38C57.1333 31.6333 56.3533 31.8333 55.54 31.98C54.74 32.1267 53.8267 32.2 52.8 32.2C51.3867 32.2 50.18 31.92 49.18 31.36C48.1933 30.8 47.44 29.9733 46.92 28.88C46.4133 27.7867 46.16 26.44 46.16 24.84C46.16 23.3467 46.4467 22.0533 47.02 20.96C47.6067 19.8667 48.4533 19.02 49.56 18.42C50.6667 17.82 52.02 17.52 53.62 17.52C54.38 17.52 55.1267 17.6 55.86 17.76C56.5933 17.92 57.26 18.1333 57.86 18.4L56.86 20.82C56.42 20.5933 55.92 20.4067 55.36 20.26C54.8 20.1133 54.2133 20.04 53.6 20.04C52.72 20.04 51.9533 20.24 51.3 20.64C50.66 21.04 50.16 21.6067 49.8 22.34C49.4533 23.06 49.28 23.9133 49.28 24.9C49.28 25.8333 49.4067 26.66 49.66 27.38C49.9133 28.1 50.3133 28.6667 50.86 29.08C51.4067 29.48 52.12 29.68 53 29.68C53.2933 29.68 53.5467 29.6733 53.76 29.66C53.9867 29.6333 54.1933 29.6067 54.38 29.58C54.5667 29.54 54.7467 29.5067 54.92 29.48V26.5H52.22V23.98ZM65.5327 20.88C66.546 20.88 67.4127 21.0733 68.1327 21.46C68.866 21.8467 69.4327 22.4067 69.8327 23.14C70.2327 23.8733 70.4327 24.7733 70.4327 25.84V27.28H63.3927C63.4193 28.12 63.666 28.78 64.1327 29.26C64.6127 29.74 65.2727 29.98 66.1127 29.98C66.8193 29.98 67.4593 29.9133 68.0327 29.78C68.606 29.6333 69.1993 29.4133 69.8127 29.12V31.42C69.2793 31.6867 68.7127 31.88 68.1127 32C67.526 32.1333 66.8127 32.2 65.9727 32.2C64.8793 32.2 63.9127 32 63.0727 31.6C62.2327 31.1867 61.5727 30.5667 61.0927 29.74C60.6127 28.9133 60.3727 27.8733 60.3727 26.62C60.3727 25.34 60.586 24.28 61.0127 23.44C61.4527 22.5867 62.0593 21.9467 62.8327 21.52C63.606 21.0933 64.506 20.88 65.5327 20.88ZM65.5527 23C64.9793 23 64.4993 23.1867 64.1127 23.56C63.7393 23.9333 63.5193 24.5133 63.4527 25.3H67.6327C67.6327 24.86 67.5527 24.4667 67.3927 24.12C67.246 23.7733 67.0193 23.5 66.7127 23.3C66.406 23.1 66.0193 23 65.5527 23ZM79.0491 20.88C80.2224 20.88 81.1624 21.2 81.8691 21.84C82.5757 22.4667 82.9291 23.48 82.9291 24.88V32H79.9491V25.62C79.9491 24.8333 79.8091 24.2467 79.5291 23.86C79.2491 23.46 78.8024 23.26 78.1891 23.26C77.2824 23.26 76.6624 23.5733 76.3291 24.2C75.9957 24.8133 75.8291 25.7 75.8291 26.86V32H72.8491V21.08H75.1291L75.5291 22.48H75.6891C75.9291 22.1067 76.2224 21.8067 76.5691 21.58C76.9157 21.34 77.3024 21.1667 77.7291 21.06C78.1557 20.94 78.5957 20.88 79.0491 20.88ZM90.4936 20.88C91.5069 20.88 92.3736 21.0733 93.0936 21.46C93.8269 21.8467 94.3936 22.4067 94.7936 23.14C95.1936 23.8733 95.3936 24.7733 95.3936 25.84V27.28H88.3536C88.3803 28.12 88.6269 28.78 89.0936 29.26C89.5736 29.74 90.2336 29.98 91.0736 29.98C91.7803 29.98 92.4203 29.9133 92.9936 29.78C93.5669 29.6333 94.1603 29.4133 94.7736 29.12V31.42C94.2403 31.6867 93.6736 31.88 93.0736 32C92.4869 32.1333 91.7736 32.2 90.9336 32.2C89.8403 32.2 88.8736 32 88.0336 31.6C87.1936 31.1867 86.5336 30.5667 86.0536 29.74C85.5736 28.9133 85.3336 27.8733 85.3336 26.62C85.3336 25.34 85.5469 24.28 85.9736 23.44C86.4136 22.5867 87.0203 21.9467 87.7936 21.52C88.5669 21.0933 89.4669 20.88 90.4936 20.88ZM90.5136 23C89.9403 23 89.4603 23.1867 89.0736 23.56C88.7003 23.9333 88.4803 24.5133 88.4136 25.3H92.5936C92.5936 24.86 92.5136 24.4667 92.3536 24.12C92.2069 23.7733 91.9803 23.5 91.6736 23.3C91.3669 23.1 90.9803 23 90.5136 23ZM103.91 20.88C104.057 20.88 104.23 20.8867 104.43 20.9C104.63 20.9133 104.79 20.9333 104.91 20.96L104.69 23.76C104.597 23.7333 104.457 23.7133 104.27 23.7C104.097 23.6733 103.943 23.66 103.81 23.66C103.423 23.66 103.05 23.7133 102.69 23.82C102.33 23.9133 102.003 24.0667 101.71 24.28C101.43 24.4933 101.203 24.78 101.03 25.14C100.87 25.4867 100.79 25.92 100.79 26.44V32H97.81V21.08H100.07L100.51 22.92H100.65C100.863 22.5467 101.13 22.2067 101.45 21.9C101.77 21.5933 102.137 21.3467 102.55 21.16C102.977 20.9733 103.43 20.88 103.91 20.88ZM110.981 20.86C112.448 20.86 113.568 21.18 114.341 21.82C115.128 22.4467 115.521 23.4133 115.521 24.72V32H113.441L112.861 30.52H112.781C112.475 30.9067 112.155 31.2267 111.821 31.48C111.501 31.7333 111.128 31.9133 110.701 32.02C110.288 32.14 109.775 32.2 109.161 32.2C108.521 32.2 107.941 32.08 107.421 31.84C106.915 31.5867 106.515 31.2067 106.221 30.7C105.928 30.18 105.781 29.5267 105.781 28.74C105.781 27.58 106.188 26.7267 107.001 26.18C107.815 25.62 109.035 25.3133 110.661 25.26L112.561 25.2V24.72C112.561 24.1467 112.408 23.7267 112.101 23.46C111.808 23.1933 111.395 23.06 110.861 23.06C110.328 23.06 109.808 23.14 109.301 23.3C108.795 23.4467 108.288 23.6333 107.781 23.86L106.801 21.84C107.388 21.5333 108.035 21.2933 108.741 21.12C109.461 20.9467 110.208 20.86 110.981 20.86ZM111.401 26.98C110.441 27.0067 109.775 27.18 109.401 27.5C109.028 27.82 108.841 28.24 108.841 28.76C108.841 29.2133 108.975 29.54 109.241 29.74C109.508 29.9267 109.855 30.02 110.281 30.02C110.921 30.02 111.461 29.8333 111.901 29.46C112.341 29.0733 112.561 28.5333 112.561 27.84V26.94L111.401 26.98ZM123.172 29.82C123.505 29.82 123.825 29.7867 124.132 29.72C124.438 29.6533 124.745 29.5733 125.052 29.48V31.7C124.732 31.8333 124.332 31.9467 123.852 32.04C123.385 32.1467 122.872 32.2 122.312 32.2C121.658 32.2 121.072 32.0933 120.552 31.88C120.045 31.6667 119.638 31.3 119.332 30.78C119.038 30.2467 118.892 29.5133 118.892 28.58V23.32H117.472V22.06L119.112 21.06L119.972 18.76H121.872V21.08H124.932V23.32H121.872V28.58C121.872 28.9933 121.992 29.3067 122.232 29.52C122.472 29.72 122.785 29.82 123.172 29.82ZM131.744 20.88C132.757 20.88 133.624 21.0733 134.344 21.46C135.077 21.8467 135.644 22.4067 136.044 23.14C136.444 23.8733 136.644 24.7733 136.644 25.84V27.28H129.604C129.63 28.12 129.877 28.78 130.344 29.26C130.824 29.74 131.484 29.98 132.324 29.98C133.03 29.98 133.67 29.9133 134.244 29.78C134.817 29.6333 135.41 29.4133 136.024 29.12V31.42C135.49 31.6867 134.924 31.88 134.324 32C133.737 32.1333 133.024 32.2 132.184 32.2C131.09 32.2 130.124 32 129.284 31.6C128.444 31.1867 127.784 30.5667 127.304 29.74C126.824 28.9133 126.584 27.8733 126.584 26.62C126.584 25.34 126.797 24.28 127.224 23.44C127.664 22.5867 128.27 21.9467 129.044 21.52C129.817 21.0933 130.717 20.88 131.744 20.88ZM131.764 23C131.19 23 130.71 23.1867 130.324 23.56C129.95 23.9333 129.73 24.5133 129.664 25.3H133.844C133.844 24.86 133.764 24.4667 133.604 24.12C133.457 23.7733 133.23 23.5 132.924 23.3C132.617 23.1 132.23 23 131.764 23Z" fill="#CAF0F8"/>
<path d="M169 32.3969C173.085 32.3969 176.397 29.0852 176.397 25C176.397 20.9148 173.085 17.6031 169 17.6031C164.915 17.6031 161.603 20.9148 161.603 25C161.603 29.0852 164.915 32.3969 169 32.3969Z" fill="#FFDA48"/>
<path d="M169 8.84064V10C171.967 10 174.867 10.8797 177.334 12.528C179.8 14.1762 181.723 16.5189 182.858 19.2598C183.994 22.0007 184.291 25.0167 183.712 27.9264C183.133 30.8361 181.704 33.5088 179.607 35.6066C177.509 37.7044 174.836 39.133 171.926 39.7118C169.017 40.2906 166.001 39.9935 163.26 38.8582C160.519 37.7229 158.176 35.8003 156.528 33.3336C154.88 30.8668 154 27.9667 154 25C153.989 21.7857 155.022 18.6548 156.944 16.0781C157.556 16.419 158.273 16.5209 158.956 16.364C159.64 16.2072 160.24 15.8028 160.643 15.229C161.045 14.6551 161.221 13.9525 161.136 13.2567C161.05 12.561 160.71 11.9216 160.181 11.4619C159.652 11.0022 158.971 10.7548 158.271 10.7676C157.57 10.7804 156.899 11.0524 156.387 11.5311C155.875 12.0098 155.558 12.6612 155.498 13.3596C155.438 14.0579 155.639 14.7537 156.063 15.3125C153.958 18.1025 152.826 21.5054 152.841 25C152.841 28.196 153.788 31.3203 155.564 33.9777C157.34 36.6351 159.863 38.7063 162.816 39.9293C165.769 41.1524 169.018 41.4724 172.153 40.8489C175.287 40.2254 178.167 38.6863 180.426 36.4264C182.686 34.1665 184.225 31.2872 184.849 28.1525C185.472 25.0179 185.152 21.7688 183.929 18.8161C182.706 15.8633 180.635 13.3396 177.978 11.564C175.32 9.78837 172.196 8.84064 169 8.84064ZM158.284 11.9469C158.612 11.9463 158.933 12.0429 159.205 12.2245C159.478 12.4061 159.691 12.6646 159.817 12.9671C159.943 13.2697 159.976 13.6028 159.912 13.9243C159.849 14.2458 159.691 14.5412 159.46 14.7732C159.228 15.0051 158.933 15.1632 158.612 15.2273C158.29 15.2915 157.957 15.2589 157.654 15.1336C157.352 15.0083 157.093 14.7961 156.911 14.5236C156.729 14.2512 156.631 13.9308 156.631 13.6031C156.632 13.1647 156.806 12.7443 157.116 12.434C157.426 12.1237 157.846 11.9485 158.284 11.9469Z" fill="#FFDA48"/>
<defs>
<filter id="filter0_d_17_133" x="0" y="0" width="200" height="58" filterUnits="userSpaceOnUse" color-interpolation-filters="sRGB">
<feFlood flood-opacity="0" result="BackgroundImageFix"/>
<feColorMatrix in="SourceAlpha" type="matrix" values="0 0 0 0 0 0 0 0 0 0 0 0 0 0 0 0 0 0 127 0" result="hardAlpha"/>
<feOffset dy="4"/>
<feGaussianBlur stdDeviation="2"/>
<feComposite in2="hardAlpha" operator="out"/>
<feColorMatrix type="matrix" values="0 0 0 0 0 0 0 0 0 0 0 0 0 0 0 0 0 0 0.25 0"/>
<feBlend mode="normal" in2="BackgroundImageFix" result="effect1_dropShadow_17_133"/>
<feBlend mode="normal" in="SourceGraphic" in2="effect1_dropShadow_17_133" result="shape"/>
</filter>
</defs>
</svg>
