<svg width="200" height="58" viewBox="0 0 200 58" fill="none" xmlns="http://www.w3.org/2000/svg">
<g filter="url(#filter0_d_498_2)">
<rect x="4" width="192" height="50" rx="25" fill="#0077B6"/>
</g>
<path d="M28.96 17.72C30.2533 17.72 31.32 17.88 32.16 18.2C33 18.5067 33.6267 18.98 34.04 19.62C34.4533 20.2467 34.66 21.04 34.66 22C34.66 22.6533 34.5333 23.2267 34.28 23.72C34.04 24.2 33.7133 24.6133 33.3 24.96C32.9 25.2933 32.4667 25.5667 32 25.78L36.2 32H32.84L29.44 26.52H27.82V32H24.8V17.72H28.96ZM28.74 20.2H27.82V24.06H28.8C29.4667 24.06 30.0067 23.9867 30.42 23.84C30.8333 23.6933 31.1333 23.4733 31.32 23.18C31.5067 22.8733 31.6 22.5067 31.6 22.08C31.6 21.6267 31.4933 21.2667 31.28 21C31.08 20.72 30.7667 20.52 30.34 20.4C29.9267 20.2667 29.3933 20.2 28.74 20.2ZM42.2631 20.88C43.2765 20.88 44.1431 21.0733 44.8631 21.46C45.5965 21.8467 46.1631 22.4067 46.5631 23.14C46.9631 23.8733 47.1631 24.7733 47.1631 25.84V27.28H40.1231C40.1498 28.12 40.3965 28.78 40.8631 29.26C41.3431 29.74 42.0031 29.98 42.8431 29.98C43.5498 29.98 44.1898 29.9133 44.7631 29.78C45.3365 29.6333 45.9298 29.4133 46.5431 29.12V31.42C46.0098 31.6867 45.4431 31.88 44.8431 32C44.2565 32.1333 43.5431 32.2 42.7031 32.2C41.6098 32.2 40.6431 32 39.8031 31.6C38.9631 31.1867 38.3031 30.5667 37.8231 29.74C37.3431 28.9133 37.1031 27.8733 37.1031 26.62C37.1031 25.34 37.3165 24.28 37.7431 23.44C38.1831 22.5867 38.7898 21.9467 39.5631 21.52C40.3365 21.0933 41.2365 20.88 42.2631 20.88ZM42.2831 23C41.7098 23 41.2298 23.1867 40.8431 23.56C40.4698 23.9333 40.2498 24.5133 40.1831 25.3H44.3631C44.3631 24.86 44.2831 24.4667 44.1231 24.12C43.9765 23.7733 43.7498 23.5 43.4431 23.3C43.1365 23.1 42.7498 23 42.2831 23ZM48.6195 27.86V25.42H53.8595V27.86H48.6195ZM61.6848 23.98H67.3448V31.38C66.5982 31.6333 65.8182 31.8333 65.0048 31.98C64.2048 32.1267 63.2915 32.2 62.2648 32.2C60.8515 32.2 59.6448 31.92 58.6448 31.36C57.6582 30.8 56.9048 29.9733 56.3848 28.88C55.8782 27.7867 55.6248 26.44 55.6248 24.84C55.6248 23.3467 55.9115 22.0533 56.4848 20.96C57.0715 19.8667 57.9182 19.02 59.0248 18.42C60.1315 17.82 61.4848 17.52 63.0848 17.52C63.8448 17.52 64.5915 17.6 65.3248 17.76C66.0582 17.92 66.7248 18.1333 67.3248 18.4L66.3248 20.82C65.8848 20.5933 65.3848 20.4067 64.8248 20.26C64.2648 20.1133 63.6782 20.04 63.0648 20.04C62.1848 20.04 61.4182 20.24 60.7648 20.64C60.1248 21.04 59.6248 21.6067 59.2648 22.34C58.9182 23.06 58.7448 23.9133 58.7448 24.9C58.7448 25.8333 58.8715 26.66 59.1248 27.38C59.3782 28.1 59.7782 28.6667 60.3248 29.08C60.8715 29.48 61.5848 29.68 62.4648 29.68C62.7582 29.68 63.0115 29.6733 63.2248 29.66C63.4515 29.6333 63.6582 29.6067 63.8448 29.58C64.0315 29.54 64.2115 29.5067 64.3848 29.48V26.5H61.6848V23.98ZM74.9975 20.88C76.0108 20.88 76.8775 21.0733 77.5975 21.46C78.3308 21.8467 78.8975 22.4067 79.2975 23.14C79.6975 23.8733 79.8975 24.7733 79.8975 25.84V27.28H72.8575C72.8842 28.12 73.1308 28.78 73.5975 29.26C74.0775 29.74 74.7375 29.98 75.5775 29.98C76.2842 29.98 76.9242 29.9133 77.4975 29.78C78.0708 29.6333 78.6642 29.4133 79.2775 29.12V31.42C78.7442 31.6867 78.1775 31.88 77.5775 32C76.9908 32.1333 76.2775 32.2 75.4375 32.2C74.3442 32.2 73.3775 32 72.5375 31.6C71.6975 31.1867 71.0375 30.5667 70.5575 29.74C70.0775 28.9133 69.8375 27.8733 69.8375 26.62C69.8375 25.34 70.0508 24.28 70.4775 23.44C70.9175 22.5867 71.5242 21.9467 72.2975 21.52C73.0708 21.0933 73.9708 20.88 74.9975 20.88ZM75.0175 23C74.4442 23 73.9642 23.1867 73.5775 23.56C73.2042 23.9333 72.9842 24.5133 72.9175 25.3H77.0975C77.0975 24.86 77.0175 24.4667 76.8575 24.12C76.7108 23.7733 76.4842 23.5 76.1775 23.3C75.8708 23.1 75.4842 23 75.0175 23ZM88.5139 20.88C89.6872 20.88 90.6272 21.2 91.3339 21.84C92.0406 22.4667 92.3939 23.48 92.3939 24.88V32H89.4139V25.62C89.4139 24.8333 89.2739 24.2467 88.9939 23.86C88.7139 23.46 88.2672 23.26 87.6539 23.26C86.7472 23.26 86.1272 23.5733 85.7939 24.2C85.4606 24.8133 85.2939 25.7 85.2939 26.86V32H82.3139V21.08H84.5939L84.9939 22.48H85.1539C85.3939 22.1067 85.6872 21.8067 86.0339 21.58C86.3806 21.34 86.7672 21.1667 87.1939 21.06C87.6206 20.94 88.0606 20.88 88.5139 20.88ZM99.9584 20.88C100.972 20.88 101.838 21.0733 102.558 21.46C103.292 21.8467 103.858 22.4067 104.258 23.14C104.658 23.8733 104.858 24.7733 104.858 25.84V27.28H97.8184C97.8451 28.12 98.0918 28.78 98.5584 29.26C99.0384 29.74 99.6984 29.98 100.538 29.98C101.245 29.98 101.885 29.9133 102.458 29.78C103.032 29.6333 103.625 29.4133 104.238 29.12V31.42C103.705 31.6867 103.138 31.88 102.538 32C101.952 32.1333 101.238 32.2 100.398 32.2C99.3051 32.2 98.3384 32 97.4984 31.6C96.6584 31.1867 95.9984 30.5667 95.5184 29.74C95.0384 28.9133 94.7984 27.8733 94.7984 26.62C94.7984 25.34 95.0118 24.28 95.4384 23.44C95.8784 22.5867 96.4851 21.9467 97.2584 21.52C98.0318 21.0933 98.9318 20.88 99.9584 20.88ZM99.9784 23C99.4051 23 98.9251 23.1867 98.5384 23.56C98.1651 23.9333 97.9451 24.5133 97.8784 25.3H102.058C102.058 24.86 101.978 24.4667 101.818 24.12C101.672 23.7733 101.445 23.5 101.138 23.3C100.832 23.1 100.445 23 99.9784 23ZM113.375 20.88C113.522 20.88 113.695 20.8867 113.895 20.9C114.095 20.9133 114.255 20.9333 114.375 20.96L114.155 23.76C114.062 23.7333 113.922 23.7133 113.735 23.7C113.562 23.6733 113.408 23.66 113.275 23.66C112.888 23.66 112.515 23.7133 112.155 23.82C111.795 23.9133 111.468 24.0667 111.175 24.28C110.895 24.4933 110.668 24.78 110.495 25.14C110.335 25.4867 110.255 25.92 110.255 26.44V32H107.275V21.08H109.535L109.975 22.92H110.115C110.328 22.5467 110.595 22.2067 110.915 21.9C111.235 21.5933 111.602 21.3467 112.015 21.16C112.442 20.9733 112.895 20.88 113.375 20.88ZM120.446 20.86C121.913 20.86 123.033 21.18 123.806 21.82C124.593 22.4467 124.986 23.4133 124.986 24.72V32H122.906L122.326 30.52H122.246C121.94 30.9067 121.62 31.2267 121.286 31.48C120.966 31.7333 120.593 31.9133 120.166 32.02C119.753 32.14 119.24 32.2 118.626 32.2C117.986 32.2 117.406 32.08 116.886 31.84C116.38 31.5867 115.98 31.2067 115.686 30.7C115.393 30.18 115.246 29.5267 115.246 28.74C115.246 27.58 115.653 26.7267 116.466 26.18C117.28 25.62 118.5 25.3133 120.126 25.26L122.026 25.2V24.72C122.026 24.1467 121.873 23.7267 121.566 23.46C121.273 23.1933 120.86 23.06 120.326 23.06C119.793 23.06 119.273 23.14 118.766 23.3C118.26 23.4467 117.753 23.6333 117.246 23.86L116.266 21.84C116.853 21.5333 117.5 21.2933 118.206 21.12C118.926 20.9467 119.673 20.86 120.446 20.86ZM120.866 26.98C119.906 27.0067 119.24 27.18 118.866 27.5C118.493 27.82 118.306 28.24 118.306 28.76C118.306 29.2133 118.44 29.54 118.706 29.74C118.973 29.9267 119.32 30.02 119.746 30.02C120.386 30.02 120.926 29.8333 121.366 29.46C121.806 29.0733 122.026 28.5333 122.026 27.84V26.94L120.866 26.98ZM132.637 29.82C132.97 29.82 133.29 29.7867 133.597 29.72C133.903 29.6533 134.21 29.5733 134.517 29.48V31.7C134.197 31.8333 133.797 31.9467 133.317 32.04C132.85 32.1467 132.337 32.2 131.777 32.2C131.123 32.2 130.537 32.0933 130.017 31.88C129.51 31.6667 129.103 31.3 128.797 30.78C128.503 30.2467 128.357 29.5133 128.357 28.58V23.32H126.937V22.06L128.577 21.06L129.437 18.76H131.337V21.08H134.397V23.32H131.337V28.58C131.337 28.9933 131.457 29.3067 131.697 29.52C131.937 29.72 132.25 29.82 132.637 29.82ZM141.208 20.88C142.222 20.88 143.088 21.0733 143.808 21.46C144.542 21.8467 145.108 22.4067 145.508 23.14C145.908 23.8733 146.108 24.7733 146.108 25.84V27.28H139.068C139.095 28.12 139.342 28.78 139.808 29.26C140.288 29.74 140.948 29.98 141.788 29.98C142.495 29.98 143.135 29.9133 143.708 29.78C144.282 29.6333 144.875 29.4133 145.488 29.12V31.42C144.955 31.6867 144.388 31.88 143.788 32C143.202 32.1333 142.488 32.2 141.648 32.2C140.555 32.2 139.588 32 138.748 31.6C137.908 31.1867 137.248 30.5667 136.768 29.74C136.288 28.9133 136.048 27.8733 136.048 26.62C136.048 25.34 136.262 24.28 136.688 23.44C137.128 22.5867 137.735 21.9467 138.508 21.52C139.282 21.0933 140.182 20.88 141.208 20.88ZM141.228 23C140.655 23 140.175 23.1867 139.788 23.56C139.415 23.9333 139.195 24.5133 139.128 25.3H143.308C143.308 24.86 143.228 24.4667 143.068 24.12C142.922 23.7733 142.695 23.5 142.388 23.3C142.082 23.1 141.695 23 141.228 23Z" fill="#CAF0F8"/>
<path d="M167 32.3969C171.085 32.3969 174.397 29.0852 174.397 25C174.397 20.9148 171.085 17.6031 167 17.6031C162.915 17.6031 159.603 20.9148 159.603 25C159.603 29.0852 162.915 32.3969 167 32.3969Z" fill="#FFDA48"/>
<path d="M167 8.84064V10C169.967 10 172.867 10.8797 175.334 12.528C177.8 14.1762 179.723 16.5189 180.858 19.2598C181.994 22.0007 182.291 25.0167 181.712 27.9264C181.133 30.8361 179.704 33.5088 177.607 35.6066C175.509 37.7044 172.836 39.133 169.926 39.7118C167.017 40.2906 164.001 39.9935 161.26 38.8582C158.519 37.7229 156.176 35.8003 154.528 33.3336C152.88 30.8668 152 27.9667 152 25C151.989 21.7857 153.022 18.6548 154.944 16.0781C155.556 16.419 156.273 16.5209 156.956 16.364C157.64 16.2072 158.24 15.8028 158.643 15.229C159.045 14.6551 159.221 13.9525 159.136 13.2567C159.05 12.561 158.71 11.9216 158.181 11.4619C157.652 11.0022 156.971 10.7548 156.271 10.7676C155.57 10.7804 154.899 11.0524 154.387 11.5311C153.875 12.0098 153.558 12.6612 153.498 13.3596C153.438 14.0579 153.639 14.7537 154.063 15.3125C151.958 18.1025 150.826 21.5054 150.841 25C150.841 28.196 151.788 31.3203 153.564 33.9777C155.34 36.6351 157.863 38.7063 160.816 39.9293C163.769 41.1524 167.018 41.4724 170.153 40.8489C173.287 40.2254 176.167 38.6863 178.426 36.4264C180.686 34.1665 182.225 31.2872 182.849 28.1525C183.472 25.0179 183.152 21.7688 181.929 18.8161C180.706 15.8633 178.635 13.3396 175.978 11.564C173.32 9.78837 170.196 8.84064 167 8.84064ZM156.284 11.9469C156.612 11.9463 156.933 12.0429 157.205 12.2245C157.478 12.4061 157.691 12.6646 157.817 12.9671C157.943 13.2697 157.976 13.6028 157.912 13.9243C157.849 14.2458 157.691 14.5412 157.46 14.7732C157.228 15.0051 156.933 15.1632 156.612 15.2273C156.29 15.2915 155.957 15.2589 155.654 15.1336C155.352 15.0083 155.093 14.7961 154.911 14.5236C154.729 14.2512 154.631 13.9308 154.631 13.6031C154.632 13.1647 154.806 12.7443 155.116 12.434C155.426 12.1237 155.846 11.9485 156.284 11.9469Z" fill="#FFDA48"/>
<defs>
<filter id="filter0_d_498_2" x="0" y="0" width="200" height="58" filterUnits="userSpaceOnUse" color-interpolation-filters="sRGB">
<feFlood flood-opacity="0" result="BackgroundImageFix"/>
<feColorMatrix in="SourceAlpha" type="matrix" values="0 0 0 0 0 0 0 0 0 0 0 0 0 0 0 0 0 0 127 0" result="hardAlpha"/>
<feOffset dy="4"/>
<feGaussianBlur stdDeviation="2"/>
<feComposite in2="hardAlpha" operator="out"/>
<feColorMatrix type="matrix" values="0 0 0 0 0 0 0 0 0 0 0 0 0 0 0 0 0 0 0.25 0"/>
<feBlend mode="normal" in2="BackgroundImageFix" result="effect1_dropShadow_498_2"/>
<feBlend mode="normal" in="SourceGraphic" in2="effect1_dropShadow_498_2" result="shape"/>
</filter>
</defs>
</svg>
