<svg width="166" height="58" viewBox="0 0 166 58" fill="none" xmlns="http://www.w3.org/2000/svg">
<g filter="url(#filter0_d_17_469)">
<rect x="4" width="158" height="50" rx="25" fill="#0077B6"/>
</g>
<path d="M60.22 28.04C60.22 28.88 60.0133 29.6133 59.6 30.24C59.1867 30.8667 58.5867 31.3533 57.8 31.7C57.0267 32.0333 56.08 32.2 54.96 32.2C54.4667 32.2 53.98 32.1667 53.5 32.1C53.0333 32.0333 52.58 31.94 52.14 31.82C51.7133 31.6867 51.3067 31.5267 50.92 31.34V28.52C51.6 28.8133 52.3 29.0867 53.02 29.34C53.7533 29.58 54.48 29.7 55.2 29.7C55.6933 29.7 56.0867 29.6333 56.38 29.5C56.6867 29.3667 56.9067 29.1867 57.04 28.96C57.1867 28.7333 57.26 28.4733 57.26 28.18C57.26 27.82 57.1333 27.5133 56.88 27.26C56.64 27.0067 56.3133 26.7733 55.9 26.56C55.4867 26.3333 55.0133 26.0933 54.48 25.84C54.1467 25.68 53.7867 25.4933 53.4 25.28C53.0133 25.0533 52.64 24.78 52.28 24.46C51.9333 24.1267 51.6467 23.7267 51.42 23.26C51.1933 22.7933 51.08 22.2333 51.08 21.58C51.08 20.7267 51.2733 20 51.66 19.4C52.06 18.7867 52.62 18.32 53.34 18C54.0733 17.68 54.9333 17.52 55.92 17.52C56.6667 17.52 57.3733 17.6067 58.04 17.78C58.72 17.9533 59.4267 18.2 60.16 18.52L59.18 20.88C58.5267 20.6133 57.94 20.4067 57.42 20.26C56.9 20.1133 56.3667 20.04 55.82 20.04C55.4467 20.04 55.1267 20.1 54.86 20.22C54.5933 20.34 54.3867 20.5067 54.24 20.72C54.1067 20.9333 54.04 21.1867 54.04 21.48C54.04 21.8133 54.14 22.1 54.34 22.34C54.54 22.5667 54.84 22.7867 55.24 23C55.64 23.2133 56.14 23.4667 56.74 23.76C57.4733 24.1067 58.0933 24.4667 58.6 24.84C59.12 25.2133 59.52 25.6533 59.8 26.16C60.08 26.6667 60.22 27.2933 60.22 28.04ZM67.1756 29.82C67.509 29.82 67.829 29.7867 68.1356 29.72C68.4423 29.6533 68.749 29.5733 69.0556 29.48V31.7C68.7356 31.8333 68.3356 31.9467 67.8556 32.04C67.389 32.1467 66.8756 32.2 66.3156 32.2C65.6623 32.2 65.0756 32.0933 64.5556 31.88C64.049 31.6667 63.6423 31.3 63.3356 30.78C63.0423 30.2467 62.8956 29.5133 62.8956 28.58V23.32H61.4756V22.06L63.1156 21.06L63.9756 18.76H65.8756V21.08H68.9356V23.32H65.8756V28.58C65.8756 28.9933 65.9956 29.3067 66.2356 29.52C66.4756 29.72 66.789 29.82 67.1756 29.82ZM75.7275 20.86C77.1942 20.86 78.3142 21.18 79.0875 21.82C79.8742 22.4467 80.2675 23.4133 80.2675 24.72V32H78.1875L77.6075 30.52H77.5275C77.2208 30.9067 76.9008 31.2267 76.5675 31.48C76.2475 31.7333 75.8742 31.9133 75.4475 32.02C75.0342 32.14 74.5208 32.2 73.9075 32.2C73.2675 32.2 72.6875 32.08 72.1675 31.84C71.6608 31.5867 71.2608 31.2067 70.9675 30.7C70.6742 30.18 70.5275 29.5267 70.5275 28.74C70.5275 27.58 70.9342 26.7267 71.7475 26.18C72.5608 25.62 73.7808 25.3133 75.4075 25.26L77.3075 25.2V24.72C77.3075 24.1467 77.1542 23.7267 76.8475 23.46C76.5542 23.1933 76.1408 23.06 75.6075 23.06C75.0742 23.06 74.5542 23.14 74.0475 23.3C73.5408 23.4467 73.0342 23.6333 72.5275 23.86L71.5475 21.84C72.1342 21.5333 72.7808 21.2933 73.4875 21.12C74.2075 20.9467 74.9542 20.86 75.7275 20.86ZM76.1475 26.98C75.1875 27.0067 74.5208 27.18 74.1475 27.5C73.7742 27.82 73.5875 28.24 73.5875 28.76C73.5875 29.2133 73.7208 29.54 73.9875 29.74C74.2542 29.9267 74.6008 30.02 75.0275 30.02C75.6675 30.02 76.2075 29.8333 76.6475 29.46C77.0875 29.0733 77.3075 28.5333 77.3075 27.84V26.94L76.1475 26.98ZM89.4178 20.88C89.5645 20.88 89.7378 20.8867 89.9378 20.9C90.1378 20.9133 90.2978 20.9333 90.4178 20.96L90.1978 23.76C90.1045 23.7333 89.9645 23.7133 89.7778 23.7C89.6045 23.6733 89.4511 23.66 89.3178 23.66C88.9311 23.66 88.5578 23.7133 88.1978 23.82C87.8378 23.9133 87.5111 24.0667 87.2178 24.28C86.9378 24.4933 86.7111 24.78 86.5378 25.14C86.3778 25.4867 86.2978 25.92 86.2978 26.44V32H83.3178V21.08H85.5778L86.0178 22.92H86.1578C86.3711 22.5467 86.6378 22.2067 86.9578 21.9C87.2778 21.5933 87.6445 21.3467 88.0578 21.16C88.4845 20.9733 88.9378 20.88 89.4178 20.88ZM96.9998 29.82C97.3332 29.82 97.6532 29.7867 97.9598 29.72C98.2665 29.6533 98.5732 29.5733 98.8798 29.48V31.7C98.5598 31.8333 98.1598 31.9467 97.6798 32.04C97.2132 32.1467 96.6998 32.2 96.1398 32.2C95.4865 32.2 94.8998 32.0933 94.3798 31.88C93.8732 31.6667 93.4665 31.3 93.1598 30.78C92.8665 30.2467 92.7198 29.5133 92.7198 28.58V23.32H91.2998V22.06L92.9398 21.06L93.7998 18.76H95.6998V21.08H98.7598V23.32H95.6998V28.58C95.6998 28.9933 95.8198 29.3067 96.0598 29.52C96.2998 29.72 96.6132 29.82 96.9998 29.82Z" fill="#CAF0F8"/>
<path d="M119.6 24.2C119.48 24.1016 119.34 24.0323 119.189 23.9976C119.038 23.9628 118.881 23.9637 118.73 24L112.45 25.83C112.033 25.9494 111.666 26.2012 111.404 26.5476C111.142 26.8939 111.001 27.316 111 27.75V31C111 31.5305 111.211 32.0392 111.586 32.4142C111.961 32.7893 112.47 33 113 33H119C119.265 33 119.52 32.8947 119.707 32.7071C119.895 32.5196 120 32.2652 120 32V25C120 24.8448 119.964 24.6917 119.894 24.5528C119.825 24.414 119.724 24.2932 119.6 24.2ZM139.55 25.83L133.27 24C133.122 23.9582 132.967 23.9508 132.816 23.9786C132.665 24.0063 132.523 24.0684 132.4 24.16C132.276 24.2532 132.175 24.374 132.106 24.5128C132.036 24.6517 132 24.8048 132 24.96V31.96C132 32.2252 132.105 32.4796 132.293 32.6671C132.48 32.8547 132.735 32.96 133 32.96H139C139.53 32.96 140.039 32.7493 140.414 32.3742C140.789 31.9992 141 31.4905 141 30.96V27.75C140.999 27.316 140.858 26.8939 140.596 26.5476C140.334 26.2012 139.967 25.9494 139.55 25.83Z" fill="#FFDA48"/>
<path d="M139.55 25.83L133.27 24C133.122 23.9582 132.967 23.9508 132.816 23.9786C132.665 24.0063 132.523 24.0684 132.4 24.16C132.276 24.2532 132.175 24.374 132.106 24.5128C132.036 24.6517 132 24.8048 132 24.96V31.96C132 32.2252 132.105 32.4796 132.293 32.6671C132.48 32.8547 132.735 32.96 133 32.96H139C139.53 32.96 140.039 32.7493 140.414 32.3742C140.789 31.9992 141 31.4905 141 30.96V27.75C140.999 27.316 140.858 26.8939 140.596 26.5476C140.334 26.2012 139.967 25.9494 139.55 25.83Z" fill="#E4C64E"/>
<path d="M131.47 38.76L130.47 34.76C130.415 34.5381 130.286 34.3417 130.104 34.2034C129.922 34.0651 129.699 33.9933 129.47 34H122.47C122.242 33.9933 122.018 34.0651 121.836 34.2034C121.654 34.3417 121.525 34.5381 121.47 34.76L120.47 38.76C120.433 38.9076 120.429 39.0618 120.461 39.2108C120.492 39.3599 120.557 39.4998 120.65 39.62C120.744 39.7392 120.864 39.8353 121.001 39.9012C121.138 39.967 121.288 40.0008 121.44 40H130.44C130.592 40.0008 130.742 39.967 130.879 39.9012C131.016 39.8353 131.136 39.7392 131.23 39.62C131.334 39.505 131.41 39.3675 131.451 39.2183C131.493 39.069 131.5 38.9121 131.47 38.76Z" fill="#FFDA48"/>
<path d="M131.29 39.62C131.196 39.7392 131.076 39.8353 130.939 39.9012C130.802 39.967 130.652 40.0008 130.5 40H126V34H129.5C129.728 33.9933 129.952 34.0651 130.134 34.2034C130.316 34.3417 130.445 34.5381 130.5 34.76L130.78 36L131.47 38.76C131.507 38.9076 131.511 39.0618 131.48 39.2108C131.448 39.3599 131.384 39.4998 131.29 39.62Z" fill="#E4C64E"/>
<path d="M134 23C133.989 20.3853 133.29 17.8196 131.974 15.5605C130.657 13.3014 128.769 11.4286 126.5 10.13C126.348 10.0422 126.176 9.99603 126 9.99603C125.824 9.99603 125.652 10.0422 125.5 10.13C123.232 11.4301 121.345 13.3033 120.029 15.5621C118.713 17.8208 118.013 20.3858 118 23V35C118 35.2652 118.105 35.5196 118.293 35.7071C118.48 35.8947 118.735 36 119 36H133C133.265 36 133.52 35.8947 133.707 35.7071C133.895 35.5196 134 35.2652 134 35V23Z" fill="#FFEA96"/>
<path d="M134 23V35C134 35.2652 133.895 35.5196 133.707 35.7071C133.52 35.8947 133.265 36 133 36H126V10C126.175 9.99881 126.348 10.0436 126.5 10.13C128.768 11.4301 130.655 13.3034 131.971 15.5621C133.287 17.8208 133.987 20.3858 134 23Z" fill="#EFDA86"/>
<path d="M126 30C128.761 30 131 27.7614 131 25C131 22.2386 128.761 20 126 20C123.239 20 121 22.2386 121 25C121 27.7614 123.239 30 126 30Z" fill="#FDFAEE"/>
<path d="M131 25C131 26.3261 130.473 27.5979 129.536 28.5355C128.598 29.4732 127.326 30 126 30V20C127.326 20 128.598 20.5268 129.536 21.4645C130.473 22.4021 131 23.6739 131 25Z" fill="#F2EDD7"/>
<defs>
<filter id="filter0_d_17_469" x="0" y="0" width="166" height="58" filterUnits="userSpaceOnUse" color-interpolation-filters="sRGB">
<feFlood flood-opacity="0" result="BackgroundImageFix"/>
<feColorMatrix in="SourceAlpha" type="matrix" values="0 0 0 0 0 0 0 0 0 0 0 0 0 0 0 0 0 0 127 0" result="hardAlpha"/>
<feOffset dy="4"/>
<feGaussianBlur stdDeviation="2"/>
<feComposite in2="hardAlpha" operator="out"/>
<feColorMatrix type="matrix" values="0 0 0 0 0 0 0 0 0 0 0 0 0 0 0 0 0 0 0.25 0"/>
<feBlend mode="normal" in2="BackgroundImageFix" result="effect1_dropShadow_17_469"/>
<feBlend mode="normal" in="SourceGraphic" in2="effect1_dropShadow_17_469" result="shape"/>
</filter>
</defs>
</svg>
